<?xml version="1.0" standalone="no"?>
<!DOCTYPE svg PUBLIC "-//W3C//DTD SVG 20010904//EN"
 "http://www.w3.org/TR/2001/REC-SVG-20010904/DTD/svg10.dtd">
<svg version="1.0" xmlns="http://www.w3.org/2000/svg"
 width="500.000000pt" height="500.000000pt" viewBox="0 0 500.000000 500.000000"
 preserveAspectRatio="xMidYMid meet">
<metadata>
Created by potrace 1.14, written by Peter Selinger 2001-2017
</metadata>
<g transform="translate(0.000000,500.000000) scale(0.100000,-0.100000)"
fill="#000000" stroke="none">
<path d="M1905 3991 c3 -5 1 -12 -4 -15 -5 -3 -5 -21 -1 -41 5 -21 4 -35 -1
-35 -6 0 -5 -8 1 -19 6 -12 6 -22 1 -25 -5 -3 -5 -21 -1 -41 5 -21 4 -35 -1
-35 -6 0 -5 -8 1 -19 7 -14 7 -22 0 -26 -8 -5 -7 -11 1 -21 9 -11 9 -14 0 -14
-8 0 -9 -5 -1 -19 6 -12 6 -22 1 -25 -5 -3 -5 -21 -1 -41 5 -21 4 -35 -1 -35
-6 0 -5 -8 1 -19 6 -12 6 -22 1 -25 -5 -3 -5 -21 -1 -41 5 -21 4 -35 -1 -35
-6 0 -5 -8 1 -19 6 -12 6 -22 1 -25 -5 -3 -5 -21 -1 -41 5 -21 4 -35 -1 -35
-6 0 -5 -8 1 -19 6 -12 6 -22 1 -25 -5 -3 -5 -21 -1 -41 5 -21 4 -35 -1 -35
-6 0 -5 -8 1 -19 6 -12 6 -22 1 -25 -5 -3 -5 -21 -1 -41 4 -19 4 -35 -1 -35
-5 0 -4 -11 1 -24 5 -13 6 -27 2 -30 -3 -4 -7 -13 -8 -22 -3 -22 -166 -348
-178 -356 -6 -4 -8 -8 -3 -8 4 0 0 -11 -9 -25 -9 -14 -12 -25 -8 -25 5 0 4 -4
-1 -8 -6 -4 -57 -101 -115 -217 -57 -115 -108 -213 -113 -216 -5 -3 -8 -9 -8
-13 2 -11 -52 -121 -63 -128 -6 -4 -8 -8 -3 -8 4 0 0 -11 -9 -25 -9 -14 -12
-25 -8 -25 5 0 4 -4 -1 -8 -11 -8 -120 -220 -120 -234 0 -5 -6 -12 -13 -17 -8
-5 -12 -10 -10 -12 4 -6 -64 -143 -77 -151 -5 -4 -7 -8 -2 -8 4 0 0 -11 -9
-25 -9 -14 -12 -25 -8 -25 5 0 4 -4 -1 -8 -16 -11 -56 -99 -69 -150 -13 -48
-12 -117 0 -162 4 -14 8 -31 10 -38 1 -7 13 -31 27 -55 48 -81 104 -126 196
-157 61 -20 71 -21 1214 -18 l1152 3 65 32 c130 64 207 189 205 333 0 36 -4
71 -8 78 -5 6 -6 12 -3 12 2 0 -18 45 -45 100 -27 56 -49 105 -49 110 0 6 -4
10 -10 10 -5 0 -10 6 -10 13 0 10 -59 132 -101 208 -7 13 -14 26 -14 29 0 3
-27 58 -59 122 -32 64 -57 120 -56 124 1 4 -5 11 -14 16 -9 5 -16 14 -16 21 0
15 -201 420 -213 428 -4 3 -9 16 -10 27 -1 12 -4 22 -7 22 -4 0 -17 24 -30 53
-13 28 -28 55 -34 59 -6 4 -8 8 -4 8 3 0 -27 66 -69 148 -69 134 -76 152 -77
209 0 35 -5 63 -9 63 -5 0 -5 5 -2 11 10 16 12 69 3 69 -4 0 -3 11 2 25 6 17
6 25 -1 25 -6 0 -7 5 -3 12 10 17 11 58 2 64 -5 3 -6 10 -2 15 10 17 12 59 2
59 -5 0 -6 4 -3 10 10 16 12 80 3 80 -5 0 -6 5 -2 12 9 14 9 82 0 96 -4 7 -4
12 1 12 10 0 9 52 -1 68 -4 7 -4 12 1 12 10 0 9 52 -1 68 -4 7 -4 12 1 12 10
0 9 52 -1 68 -4 7 -3 12 1 12 5 0 9 9 9 20 0 11 -5 20 -10 20 -7 0 -7 3 0 10
5 5 8 28 6 50 l-4 40 -100 0 -100 0 4 -30 c3 -16 1 -30 -4 -30 -5 0 -4 -9 2
-19 6 -12 6 -22 1 -25 -5 -3 -5 -21 -1 -41 5 -21 4 -35 -1 -35 -6 0 -5 -8 1
-19 5 -11 6 -22 2 -25 -5 -3 -5 -30 -2 -60 3 -31 2 -56 -2 -56 -5 0 -4 -9 2
-19 6 -12 6 -22 1 -25 -5 -3 -5 -21 -1 -41 5 -21 4 -35 -1 -35 -6 0 -5 -8 1
-19 6 -12 6 -22 1 -25 -5 -3 -5 -21 -1 -41 5 -21 4 -35 -1 -35 -6 0 -5 -8 1
-19 6 -12 6 -22 1 -25 -5 -3 -5 -21 -1 -41 5 -21 4 -35 -1 -35 -6 0 -5 -8 1
-19 6 -12 6 -22 1 -25 -5 -3 -5 -21 -1 -41 5 -21 4 -35 -1 -35 -6 0 -5 -8 1
-19 6 -12 6 -22 1 -25 -5 -3 -8 -14 -6 -24 13 -65 14 -83 4 -76 -7 4 -7 -1 1
-16 6 -12 9 -24 7 -27 -3 -2 1 -20 9 -39 8 -19 11 -34 8 -34 -4 0 0 -8 8 -17
8 -10 21 -34 28 -53 8 -19 16 -37 19 -40 15 -13 40 -68 34 -74 -3 -3 -1 -6 6
-6 7 0 10 -4 6 -9 -3 -5 -1 -12 5 -16 10 -6 40 -69 39 -82 -1 -3 3 -9 8 -12
10 -7 182 -352 181 -365 0 -5 4 -12 9 -15 11 -8 37 -63 35 -73 -1 -5 3 -8 9
-8 5 0 7 -4 4 -10 -3 -5 -1 -10 4 -10 6 0 11 -7 11 -15 0 -8 5 -15 12 -15 6 0
9 -3 5 -6 -3 -3 21 -57 53 -120 32 -63 55 -114 52 -114 -4 0 -2 -4 3 -8 13 -9
126 -234 125 -249 0 -7 3 -13 8 -13 8 0 62 -109 61 -124 0 -5 3 -12 8 -15 15
-11 53 -88 46 -95 -3 -3 -1 -6 5 -6 11 0 25 -46 27 -90 2 -30 -19 -76 -49
-108 -49 -55 14 -52 -1203 -49 -1072 2 -1129 3 -1155 20 -29 20 -58 60 -63 86
-2 9 -4 16 -5 16 -1 0 -3 13 -4 28 -1 15 9 49 21 75 13 26 23 52 23 58 0 5 9
20 20 32 12 12 18 22 15 22 -3 0 17 43 44 95 27 52 47 95 44 95 -4 0 1 8 10
18 10 10 14 22 10 25 -3 4 -2 7 4 7 10 0 26 36 24 53 -1 4 4 7 10 7 5 0 8 4 5
9 -4 5 -3 11 1 13 8 3 48 76 48 87 1 3 6 16 13 28 40 71 229 453 225 453 -3 0
-1 6 5 13 19 22 82 147 82 162 0 8 8 19 18 24 9 6 14 11 10 11 -4 0 34 82 85
183 93 184 112 229 121 280 8 45 9 274 2 286 -4 6 -3 11 1 11 5 0 9 9 9 20 0
11 -4 20 -7 20 -4 0 -4 12 0 28 5 15 4 37 0 50 -5 12 -5 22 -1 22 4 0 7 20 7
45 0 25 -4 45 -8 45 -4 0 -3 9 3 19 7 14 7 22 0 26 -6 4 -7 12 -3 18 10 16 13
37 5 37 -4 0 -5 58 -2 130 3 82 1 132 -5 134 -5 3 -5 5 2 5 8 1 9 10 3 31 -5
17 -5 30 0 30 4 0 6 9 3 20 -5 18 -14 20 -105 20 -59 0 -97 -4 -93 -9z"/>
</g>
</svg>
